<?xml version="1.0" encoding="UTF-8" standalone="no"?>
<!DOCTYPE svg PUBLIC "-//W3C//DTD SVG 1.1//EN" "http://www.w3.org/Graphics/SVG/1.1/DTD/svg11.dtd">
<!-- Created with Vectornator (http://vectornator.io/) -->
<svg height="100%" stroke-miterlimit="10" style="fill-rule:nonzero;clip-rule:evenodd;stroke-linecap:round;stroke-linejoin:round;" version="1.1" viewBox="0 0 595.94 156.94" width="100%" xml:space="preserve" xmlns="http://www.w3.org/2000/svg" xmlns:vectornator="http://vectornator.io" xmlns:xlink="http://www.w3.org/1999/xlink">
<defs/>
<clipPath id="ArtboardFrame">
<rect height="156.94" width="595.94" x="0" y="0"/>
</clipPath>
<g clip-path="url(#ArtboardFrame)" id="Untitled" vectornator:layerName="Untitled">
<g opacity="1">
<path d="M159.23 77.29C159.23 121.19 123.51 156.91 79.61 156.91C35.71 156.91 0 121.19 0 77.29L27.72 77.29C27.72 105.91 51 129.19 79.62 129.19C108.24 129.19 131.52 105.91 131.52 77.29L159.24 77.29L159.23 77.29Z" fill="#1f3c88" fill-rule="nonzero" opacity="1" stroke="none"/>
<g opacity="1">
<path d="M79.57 119.95C103.09 119.95 122.23 100.81 122.23 77.29C122.23 66.43 118.14 56.51 111.43 48.97C105.37 55.31 98.04 64.24 91.53 76.09C85.24 87.52 81.67 98.12 79.56 106.31C75.23 101.15 68.56 94.34 59.08 88.17C50.78 82.77 42.96 79.58 36.91 77.63C37.09 101 56.15 119.96 79.56 119.96L79.57 119.95Z" fill="#36b190" fill-rule="nonzero" opacity="1" stroke="none"/>
<g opacity="1">
<path d="M132.26 22.77C132.8 22.94 133.38 22.64 133.55 22.1C133.72 21.56 133.42 20.98 132.88 20.81C132.34 20.64 131.76 20.94 131.59 21.48C131.42 22.02 131.72 22.6 132.26 22.77Z" fill="#f8b010" fill-rule="nonzero" opacity="1" stroke="none"/>
<path d="M126.4 15.37C125.81 15.18 125.17 15.51 124.99 16.1C124.81 16.69 125.13 17.33 125.72 17.51C126.31 17.7 126.95 17.37 127.13 16.78C127.31 16.19 126.99 15.55 126.4 15.37Z" fill="#f8b010" fill-rule="nonzero" opacity="1" stroke="none"/>
<path d="M119.37 10.73C118.75 10.53 118.1 10.88 117.9 11.49C117.7 12.1 118.05 12.76 118.66 12.96C119.27 13.16 119.93 12.81 120.13 12.2C120.33 11.59 119.98 10.93 119.37 10.73Z" fill="#f8b010" fill-rule="nonzero" opacity="1" stroke="none"/>
<path d="M111.87 6.88C111.23 6.68 110.55 7.03 110.35 7.67C110.15 8.31 110.5 8.99 111.14 9.19C111.78 9.39 112.46 9.04 112.66 8.4C112.86 7.76 112.51 7.08 111.87 6.88Z" fill="#f8b010" fill-rule="nonzero" opacity="1" stroke="none"/>
<path d="M103.25 6.26C103.91 6.47 104.62 6.1 104.83 5.44C105.04 4.78 104.67 4.07 104.01 3.86C103.35 3.65 102.64 4.02 102.43 4.68C102.22 5.34 102.59 6.05 103.25 6.26Z" fill="#f8b010" fill-rule="nonzero" opacity="1" stroke="none"/>
<path d="M95.09 4.18C95.77 4.4 96.5 4.02 96.72 3.33C96.94 2.64 96.56 1.92 95.87 1.7C95.19 1.48 94.46 1.86 94.24 2.55C94.02 3.24 94.4 3.96 95.09 4.18Z" fill="#f8b010" fill-rule="nonzero" opacity="1" stroke="none"/>
<path d="M86.75 2.98C87.46 3.2 88.21 2.81 88.44 2.11C88.67 1.41 88.27 0.65 87.57 0.42C86.87 0.19 86.11 0.59 85.88 1.29C85.65 1.99 86.05 2.75 86.75 2.98Z" fill="#f8b010" fill-rule="nonzero" opacity="1" stroke="none"/>
<path d="M78.32 2.71C79.05 2.94 79.83 2.54 80.06 1.81C80.29 1.08 79.89 0.3 79.16 0.0700001C78.43-0.16 77.65 0.24 77.42 0.97C77.19 1.7 77.59 2.48 78.32 2.71Z" fill="#f8b010" fill-rule="nonzero" opacity="1" stroke="none"/>
<path d="M69.91 3.35C70.66 3.59 71.47 3.17 71.7 2.42C71.93 1.67 71.52 0.86 70.77 0.63C70.02 0.4 69.21 0.81 68.98 1.56C68.75 2.31 69.16 3.12 69.91 3.35Z" fill="#f8b010" fill-rule="nonzero" opacity="1" stroke="none"/>
<path d="M61.62 4.9C62.4 5.15 63.22 4.72 63.47 3.94C63.72 3.16 63.29 2.34 62.51 2.09C61.73 1.84 60.91 2.27 60.66 3.05C60.41 3.83 60.84 4.65 61.62 4.9Z" fill="#f8b010" fill-rule="nonzero" opacity="1" stroke="none"/>
<path d="M53.53 7.33C54.33 7.58 55.18 7.14 55.43 6.34C55.68 5.54 55.24 4.69 54.44 4.44C53.64 4.19 52.79 4.63 52.54 5.43C52.29 6.23 52.73 7.08 53.53 7.33Z" fill="#f8b010" fill-rule="nonzero" opacity="1" stroke="none"/>
<path d="M45.75 10.63C46.57 10.89 47.45 10.44 47.71 9.62C47.97 8.8 47.52 7.92 46.7 7.66C45.88 7.4 45 7.85 44.74 8.67C44.48 9.49 44.93 10.37 45.75 10.63Z" fill="#f8b010" fill-rule="nonzero" opacity="1" stroke="none"/>
<path d="M38.37 14.73C39.21 15 40.11 14.53 40.38 13.69C40.65 12.85 40.18 11.95 39.34 11.68C38.5 11.41 37.6 11.88 37.33 12.72C37.06 13.56 37.53 14.46 38.37 14.73Z" fill="#f8b010" fill-rule="nonzero" opacity="1" stroke="none"/>
<path d="M31.47 19.61C32.34 19.89 33.26 19.41 33.54 18.54C33.82 17.67 33.34 16.75 32.47 16.47C31.6 16.19 30.68 16.67 30.4 17.54C30.12 18.41 30.6 19.33 31.47 19.61Z" fill="#f8b010" fill-rule="nonzero" opacity="1" stroke="none"/>
<path d="M25.13 25.2C26.02 25.48 26.97 24.99 27.25 24.1C27.53 23.21 27.04 22.26 26.15 21.98C25.26 21.7 24.31 22.19 24.03 23.08C23.75 23.97 24.24 24.92 25.13 25.2Z" fill="#f8b010" fill-rule="nonzero" opacity="1" stroke="none"/>
<path d="M18.22 29.79C18.22 28.8345 18.9945 28.06 19.95 28.06C20.9055 28.06 21.68 28.8345 21.68 29.79C21.68 30.7455 20.9055 31.52 19.95 31.52C18.9945 31.52 18.22 30.7455 18.22 29.79Z" fill="#f8b010" fill-rule="nonzero" opacity="1" stroke="none"/>
<path d="M14.43 38.26C15.36 38.56 16.36 38.04 16.66 37.1C16.96 36.16 16.44 35.17 15.5 34.87C14.56 34.57 13.57 35.09 13.27 36.03C12.97 36.97 13.49 37.96 14.43 38.26Z" fill="#f8b010" fill-rule="nonzero" opacity="1" stroke="none"/>
<path d="M10.21 45.59C11.17 45.89 12.19 45.36 12.49 44.41C12.79 43.46 12.26 42.43 11.31 42.13C10.36 41.83 9.33 42.36 9.03 43.31C8.73 44.26 9.26 45.29 10.21 45.59Z" fill="#f8b010" fill-rule="nonzero" opacity="1" stroke="none"/>
<path d="M6.79774 53.3265C5.81863 53.0157 5.27684 51.9701 5.58762 50.991C5.8984 50.0118 6.94407 49.4701 7.92318 49.7808C8.90229 50.0916 9.44408 51.1373 9.1333 52.1164C8.82251 53.0955 7.77685 53.6373 6.79774 53.3265Z" fill="#f8b010" fill-rule="nonzero" opacity="1" stroke="none"/>
<path d="M4.15573 61.6102C3.03449 61.2543 2.41405 60.0569 2.76995 58.9356C3.12584 57.8144 4.32329 57.194 5.44453 57.5499C6.56577 57.9058 7.18621 59.1032 6.83032 60.2245C6.47442 61.3457 5.27697 61.9661 4.15573 61.6102Z" fill="#f8b010" fill-rule="nonzero" opacity="1" stroke="none"/>
<path d="M5.25 68.51C5.62 67.33 4.97 66.07 3.79 65.7C2.61 65.33 1.35 65.98 0.98 67.16C0.61 68.34 1.26 69.6 2.44 69.97C3.62 70.34 4.88 69.69 5.25 68.51Z" fill="#f8b010" fill-rule="nonzero" opacity="1" stroke="none"/>
<path d="M9.34 70.08C10.52 70.45 11.77 69.8 12.15 68.63C12.53 67.46 11.87 66.2 10.7 65.82C9.52 65.45 8.27 66.1 7.89 67.27C7.52 68.45 8.17 69.7 9.34 70.08Z" fill="#f8b010" fill-rule="nonzero" opacity="1" stroke="none"/>
<path d="M11.2 61.77C12.32 62.12 13.51 61.51 13.87 60.39C14.23 59.27 13.61 58.08 12.49 57.72C11.37 57.36 10.18 57.98 9.82 59.1C9.46 60.22 10.08 61.41 11.2 61.77Z" fill="#f8b010" fill-rule="nonzero" opacity="1" stroke="none"/>
<path d="M12.85 51.26C12.54 52.23 13.08 53.27 14.05 53.58C15.02 53.89 16.06 53.35 16.37 52.38C16.68 51.41 16.14 50.37 15.17 50.06C14.2 49.75 13.16 50.29 12.85 51.26Z" fill="#f8b010" fill-rule="nonzero" opacity="1" stroke="none"/>
<path d="M20.01 44.81C20.31 43.86 19.79 42.85 18.84 42.55C17.89 42.25 16.88 42.77 16.58 43.72C16.28 44.67 16.8 45.68 17.75 45.98C18.7 46.28 19.71 45.76 20.01 44.81Z" fill="#f8b010" fill-rule="nonzero" opacity="1" stroke="none"/>
<path d="M21.18 36.67C20.89 37.59 21.4 38.58 22.32 38.87C23.24 39.16 24.23 38.65 24.52 37.73C24.81 36.81 24.3 35.82 23.38 35.53C22.46 35.24 21.47 35.75 21.18 36.67Z" fill="#f8b010" fill-rule="nonzero" opacity="1" stroke="none"/>
<path d="M28.73 29.11C27.83 28.82 26.87 29.32 26.59 30.22C26.31 31.12 26.8 32.08 27.7 32.36C28.6 32.65 29.56 32.15 29.84 31.25C30.13 30.35 29.63 29.39 28.73 29.11Z" fill="#f8b010" fill-rule="nonzero" opacity="1" stroke="none"/>
<path d="M33.8 26.54C34.67 26.82 35.61 26.33 35.88 25.46C36.15 24.59 35.67 23.65 34.8 23.38C33.93 23.1 32.99 23.59 32.72 24.46C32.45 25.33 32.93 26.27 33.8 26.54Z" fill="#f8b010" fill-rule="nonzero" opacity="1" stroke="none"/>
<path d="M40.55 21.47C41.4 21.74 42.3 21.27 42.57 20.42C42.84 19.57 42.37 18.67 41.52 18.4C40.67 18.13 39.77 18.6 39.5 19.45C39.23 20.3 39.7 21.2 40.55 21.47Z" fill="#f8b010" fill-rule="nonzero" opacity="1" stroke="none"/>
<path d="M47.83 17.23C48.65 17.49 49.53 17.04 49.79 16.21C50.05 15.38 49.6 14.51 48.77 14.25C47.95 13.99 47.07 14.44 46.81 15.27C46.55 16.1 47 16.97 47.83 17.23Z" fill="#f8b010" fill-rule="nonzero" opacity="1" stroke="none"/>
<path d="M55.56 13.87C56.36 14.12 57.21 13.68 57.46 12.88C57.71 12.08 57.27 11.23 56.47 10.98C55.67 10.73 54.82 11.17 54.57 11.97C54.32 12.77 54.76 13.62 55.56 13.87Z" fill="#f8b010" fill-rule="nonzero" opacity="1" stroke="none"/>
<path d="M63.63 11.45C64.4 11.7 65.23 11.27 65.48 10.49C65.73 9.71 65.3 8.89 64.52 8.64C63.74 8.39 62.92 8.82 62.67 9.6C62.42 10.38 62.85 11.2 63.63 11.45Z" fill="#f8b010" fill-rule="nonzero" opacity="1" stroke="none"/>
<path d="M71.92 9.99C72.67 10.23 73.47 9.81 73.71 9.06C73.95 8.31 73.53 7.51 72.78 7.27C72.03 7.03 71.23 7.45 70.99 8.2C70.75 8.95 71.17 9.75 71.92 9.99Z" fill="#f8b010" fill-rule="nonzero" opacity="1" stroke="none"/>
<path d="M79.37 8.22C79.37 7.46337 79.9834 6.85 80.74 6.85C81.4966 6.85 82.11 7.46337 82.11 8.22C82.11 8.97663 81.4966 9.59 80.74 9.59C79.9834 9.59 79.37 8.97663 79.37 8.22Z" fill="#f8b010" fill-rule="nonzero" opacity="1" stroke="none"/>
<path d="M88.71 10.07C89.41 10.29 90.15 9.91 90.38 9.21C90.61 8.51 90.22 7.77 89.52 7.54C88.82 7.32 88.08 7.7 87.85 8.4C87.62 9.1 88.01 9.84 88.71 10.07Z" fill="#f8b010" fill-rule="nonzero" opacity="1" stroke="none"/>
<path d="M96.98 11.6C97.65 11.81 98.37 11.44 98.59 10.77C98.81 10.1 98.43 9.38 97.76 9.16C97.09 8.95 96.37 9.32 96.15 9.99C95.93 10.66 96.31 11.38 96.98 11.6Z" fill="#f8b010" fill-rule="nonzero" opacity="1" stroke="none"/>
<path d="M105.004 14.0864C104.357 13.8809 103.998 13.1894 104.204 12.542C104.409 11.8945 105.101 11.5362 105.748 11.7417C106.396 11.9472 106.754 12.6387 106.549 13.2862C106.343 13.9337 105.652 14.2919 105.004 14.0864Z" fill="#f8b010" fill-rule="nonzero" opacity="1" stroke="none"/>
<path d="M113.4 15.23C112.78 15.03 112.11 15.38 111.91 16C111.71 16.62 112.06 17.29 112.68 17.49C113.3 17.69 113.97 17.34 114.17 16.72C114.37 16.1 114.02 15.43 113.4 15.23Z" fill="#f8b010" fill-rule="nonzero" opacity="1" stroke="none"/>
<path d="M120.58 19.61C119.98 19.42 119.34 19.75 119.15 20.35C118.96 20.95 119.29 21.59 119.89 21.78C120.49 21.97 121.13 21.64 121.32 21.04C121.51 20.44 121.18 19.8 120.58 19.61Z" fill="#f8b010" fill-rule="nonzero" opacity="1" stroke="none"/>
<path d="M126.55 26.85C127.1 27.02 127.68 26.72 127.85 26.18C128.02 25.64 127.72 25.05 127.18 24.88C126.64 24.71 126.05 25.01 125.88 25.55C125.71 26.09 126.01 26.68 126.55 26.85Z" fill="#f8b010" fill-rule="nonzero" opacity="1" stroke="none"/>
<path d="M14.84 67.26C14.47 68.43 15.12 69.68 16.29 70.06C17.46 70.43 18.71 69.78 19.09 68.61C19.47 67.44 18.81 66.19 17.64 65.81C16.47 65.44 15.22 66.09 14.84 67.26Z" fill="#f8b010" fill-rule="nonzero" opacity="1" stroke="none"/>
<path d="M16.96 59.16C16.61 60.27 17.22 61.46 18.33 61.81C19.44 62.16 20.63 61.55 20.98 60.44C21.33 59.33 20.72 58.14 19.61 57.79C18.5 57.44 17.31 58.05 16.96 59.16Z" fill="#f8b010" fill-rule="nonzero" opacity="1" stroke="none"/>
<path d="M22.57 50.24C21.61 49.93 20.58 50.47 20.27 51.43C19.96 52.39 20.5 53.42 21.46 53.73C22.42 54.04 23.45 53.5 23.76 52.54C24.07 51.58 23.53 50.55 22.57 50.24Z" fill="#f8b010" fill-rule="nonzero" opacity="1" stroke="none"/>
<path d="M24.27 44.64C24.27 43.6569 25.0669 42.86 26.05 42.86C27.0331 42.86 27.83 43.6569 27.83 44.64C27.83 45.6231 27.0331 46.42 26.05 46.42C25.0669 46.42 24.27 45.6231 24.27 44.64Z" fill="#f8b010" fill-rule="nonzero" opacity="1" stroke="none"/>
<path d="M31.53 36.24C30.62 35.95 29.65 36.45 29.36 37.36C29.07 38.27 29.57 39.24 30.48 39.53C31.39 39.82 32.36 39.32 32.65 38.41C32.94 37.5 32.44 36.53 31.53 36.24Z" fill="#f8b010" fill-rule="nonzero" opacity="1" stroke="none"/>
<path d="M36.31 33.44C37.19 33.72 38.13 33.23 38.41 32.35C38.69 31.47 38.2 30.53 37.32 30.25C36.44 29.97 35.5 30.46 35.22 31.34C34.94 32.22 35.43 33.16 36.31 33.44Z" fill="#f8b010" fill-rule="nonzero" opacity="1" stroke="none"/>
<path d="M42.87 28.16C43.72 28.43 44.64 27.96 44.91 27.1C45.18 26.24 44.71 25.33 43.85 25.06C43 24.79 42.08 25.26 41.81 26.12C41.54 26.98 42.01 27.89 42.87 28.16Z" fill="#f8b010" fill-rule="nonzero" opacity="1" stroke="none"/>
<path d="M49.03 21.8C48.77 22.63 49.22 23.51 50.05 23.77C50.88 24.03 51.76 23.57 52.02 22.75C52.28 21.93 51.83 21.04 51 20.78C50.17 20.52 49.29 20.97 49.03 21.8Z" fill="#f8b010" fill-rule="nonzero" opacity="1" stroke="none"/>
<path d="M56.68 18.91C56.68 18.0705 57.3605 17.39 58.2 17.39C59.0395 17.39 59.72 18.0705 59.72 18.91C59.72 19.7495 59.0395 20.43 58.2 20.43C57.3605 20.43 56.68 19.7495 56.68 18.91Z" fill="#f8b010" fill-rule="nonzero" opacity="1" stroke="none"/>
<path d="M64.84 16.13C64.6 16.9 65.02 17.73 65.79 17.97C66.56 18.21 67.39 17.79 67.63 17.02C67.87 16.25 67.45 15.42 66.68 15.18C65.91 14.94 65.08 15.36 64.84 16.13Z" fill="#f8b010" fill-rule="nonzero" opacity="1" stroke="none"/>
<path d="M74.94 13.95C74.2 13.71 73.4 14.13 73.17 14.87C72.94 15.61 73.35 16.41 74.09 16.64C74.83 16.88 75.63 16.46 75.86 15.72C76.09 14.98 75.68 14.18 74.94 13.95Z" fill="#f8b010" fill-rule="nonzero" opacity="1" stroke="none"/>
<path d="M82.48 16.42C83.2 16.65 83.96 16.25 84.19 15.53C84.42 14.81 84.02 14.05 83.3 13.82C82.58 13.59 81.82 13.99 81.59 14.71C81.36 15.43 81.76 16.19 82.48 16.42Z" fill="#f8b010" fill-rule="nonzero" opacity="1" stroke="none"/>
<path d="M90.82 17.29C91.51 17.51 92.24 17.13 92.46 16.44C92.68 15.75 92.3 15.02 91.61 14.8C90.92 14.58 90.19 14.96 89.97 15.65C89.75 16.34 90.13 17.07 90.82 17.29Z" fill="#f8b010" fill-rule="nonzero" opacity="1" stroke="none"/>
<path d="M98.98 19.25C99.64 19.46 100.35 19.09 100.56 18.43C100.77 17.77 100.4 17.06 99.74 16.85C99.08 16.64 98.37 17.01 98.16 17.67C97.95 18.33 98.32 19.04 98.98 19.25Z" fill="#f8b010" fill-rule="nonzero" opacity="1" stroke="none"/>
<path d="M107.54 19.94C106.91 19.74 106.23 20.09 106.03 20.72C105.83 21.35 106.18 22.03 106.81 22.23C107.44 22.43 108.12 22.08 108.32 21.45C108.52 20.82 108.17 20.14 107.54 19.94Z" fill="#f8b010" fill-rule="nonzero" opacity="1" stroke="none"/>
<path d="M113.37 25.12C113.37 24.4849 113.885 23.97 114.52 23.97C115.155 23.97 115.67 24.4849 115.67 25.12C115.67 25.7551 115.155 26.27 114.52 26.27C113.885 26.27 113.37 25.7551 113.37 25.12Z" fill="#f8b010" fill-rule="nonzero" opacity="1" stroke="none"/>
<path d="M121.59 29.08C121.04 28.91 120.45 29.21 120.28 29.76C120.11 30.31 120.41 30.9 120.96 31.07C121.51 31.24 122.1 30.94 122.27 30.39C122.44 29.84 122.14 29.25 121.59 29.08Z" fill="#f8b010" fill-rule="nonzero" opacity="1" stroke="none"/>
<path d="M26.04 68.6C26.41 67.43 25.76 66.19 24.6 65.82C23.43 65.45 22.19 66.1 21.82 67.26C21.45 68.43 22.1 69.67 23.26 70.04C24.42 70.41 25.67 69.76 26.04 68.6Z" fill="#f8b010" fill-rule="nonzero" opacity="1" stroke="none"/>
<path d="M24.07 59.88C24.07 58.7257 25.0057 57.79 26.16 57.79C27.3143 57.79 28.25 58.7257 28.25 59.88C28.25 61.0343 27.3143 61.97 26.16 61.97C25.0057 61.97 24.07 61.0343 24.07 59.88Z" fill="#f8b010" fill-rule="nonzero" opacity="1" stroke="none"/>
<path d="M27.8 51.68C27.5 52.63 28.02 53.65 28.98 53.95C29.93 54.25 30.95 53.73 31.25 52.77C31.55 51.81 31.03 50.8 30.07 50.5C29.12 50.2 28.1 50.72 27.8 51.68Z" fill="#f8b010" fill-rule="nonzero" opacity="1" stroke="none"/>
<path d="M34.51 43.49C33.59 43.2 32.6 43.71 32.31 44.63C32.02 45.55 32.53 46.54 33.45 46.83C34.37 47.12 35.36 46.61 35.65 45.69C35.94 44.77 35.43 43.78 34.51 43.49Z" fill="#f8b010" fill-rule="nonzero" opacity="1" stroke="none"/>
<path d="M38.91 40.43C39.8 40.71 40.75 40.22 41.04 39.33C41.33 38.44 40.83 37.49 39.94 37.2C39.05 36.91 38.1 37.41 37.81 38.3C37.52 39.19 38.02 40.14 38.91 40.43Z" fill="#f8b010" fill-rule="nonzero" opacity="1" stroke="none"/>
<path d="M46.22 31.78C45.36 31.51 44.44 31.98 44.17 32.84C43.9 33.7 44.37 34.62 45.23 34.89C46.09 35.16 47.01 34.69 47.28 33.83C47.55 32.97 47.08 32.05 46.22 31.78Z" fill="#f8b010" fill-rule="nonzero" opacity="1" stroke="none"/>
<path d="M53.24 27.33C52.41 27.07 51.52 27.53 51.26 28.36C51 29.19 51.46 30.08 52.29 30.34C53.12 30.6 54.01 30.14 54.27 29.31C54.53 28.48 54.07 27.59 53.24 27.33Z" fill="#f8b010" fill-rule="nonzero" opacity="1" stroke="none"/>
<path d="M60.83 23.95C60.03 23.7 59.18 24.14 58.92 24.94C58.66 25.74 59.11 26.59 59.91 26.85C60.71 27.11 61.56 26.66 61.82 25.86C62.08 25.06 61.63 24.21 60.83 23.95Z" fill="#f8b010" fill-rule="nonzero" opacity="1" stroke="none"/>
<path d="M67.01 22.66C66.77 23.43 67.19 24.25 67.96 24.49C68.73 24.73 69.55 24.31 69.79 23.54C70.03 22.77 69.61 21.95 68.84 21.71C68.07 21.47 67.25 21.89 67.01 22.66Z" fill="#f8b010" fill-rule="nonzero" opacity="1" stroke="none"/>
<path d="M78.01 22.42C78.24 21.68 77.84 20.89 77.1 20.66C76.36 20.43 75.57 20.83 75.34 21.57C75.11 22.31 75.51 23.1 76.25 23.33C76.99 23.56 77.78 23.16 78.01 22.42Z" fill="#f8b010" fill-rule="nonzero" opacity="1" stroke="none"/>
<path d="M85.44 20.84C84.73 20.62 83.98 21.01 83.75 21.71C83.52 22.41 83.92 23.17 84.62 23.4C85.32 23.63 86.08 23.23 86.31 22.53C86.54 21.83 86.14 21.07 85.44 20.84Z" fill="#f8b010" fill-rule="nonzero" opacity="1" stroke="none"/>
<path d="M91.99 23.46C91.99 22.7476 92.5676 22.17 93.28 22.17C93.9924 22.17 94.57 22.7476 94.57 23.46C94.57 24.1724 93.9924 24.75 93.28 24.75C92.5676 24.75 91.99 24.1724 91.99 23.46Z" fill="#f8b010" fill-rule="nonzero" opacity="1" stroke="none"/>
<path d="M101.62 24.81C100.97 24.61 100.28 24.96 100.08 25.61C99.88 26.26 100.23 26.95 100.88 27.15C101.53 27.35 102.22 27 102.42 26.35C102.62 25.7 102.27 25.01 101.62 24.81Z" fill="#f8b010" fill-rule="nonzero" opacity="1" stroke="none"/>
<path d="M109.12 28.51C108.5 28.31 107.85 28.66 107.65 29.27C107.45 29.88 107.8 30.54 108.41 30.74C109.02 30.94 109.68 30.59 109.88 29.98C110.08 29.37 109.73 28.71 109.12 28.51Z" fill="#f8b010" fill-rule="nonzero" opacity="1" stroke="none"/>
<path d="M115.99 33.32C115.43 33.14 114.84 33.45 114.67 34.01C114.5 34.57 114.8 35.16 115.36 35.33C115.92 35.5 116.51 35.2 116.68 34.64C116.85 34.08 116.55 33.49 115.99 33.32Z" fill="#f8b010" fill-rule="nonzero" opacity="1" stroke="none"/>
</g>
</g>
</g>
<path d="M354.95 90.53L340.22 98.37C337.9 93.62 335.02 91.24 331.59 91.24C329.95 91.24 328.55 91.78 327.39 92.86C326.23 93.94 325.65 95.33 325.65 97.02C325.65 99.98 329.08 102.91 335.95 105.81C345.4 109.88 351.77 113.63 355.04 117.06C358.31 120.49 359.95 125.11 359.95 130.92C359.95 138.37 357.2 144.6 351.71 149.61C346.37 154.36 339.93 156.74 332.38 156.74C319.44 156.74 310.28 150.43 304.89 137.81L320.1 130.76C322.21 134.46 323.82 136.81 324.93 137.81C327.1 139.82 329.68 140.82 332.69 140.82C338.71 140.82 341.72 138.07 341.72 132.58C341.72 129.41 339.4 126.45 334.75 123.71C332.95 122.81 331.16 121.94 329.36 121.1C327.56 120.26 325.74 119.38 323.89 118.49C318.71 115.96 315.07 113.42 312.96 110.89C310.27 107.67 308.92 103.52 308.92 98.45C308.92 91.74 311.22 86.2 315.81 81.81C320.51 77.43 326.21 75.24 332.92 75.24C342.79 75.24 350.14 80.34 354.94 90.53L354.95 90.53Z" fill="#1f3c88" fill-rule="nonzero" opacity="1" stroke="none"/>
<g opacity="1">
<path d="M479.05 76.99L595.95 76.99L595.95 76.99L595.95 154.92L595.95 154.92L479.05 154.92L479.05 154.92L479.05 76.99L479.05 76.99Z" fill="#1f3c88" fill-rule="nonzero" opacity="1" stroke="none"/>
<path d="M535.01 93.97L537.47 92.17L539.94 93.97L539 91.06L541.5 89.26L538.42 89.26L537.47 86.31L536.53 89.26L533.44 89.26L535.94 91.06L535.01 93.97Z" fill="#ffffff" fill-rule="nonzero" opacity="1" stroke="none"/>
<path d="M522.24 97.4L524.71 95.6L527.17 97.4L526.23 94.49L528.74 92.69L525.65 92.69L524.71 89.74L523.76 92.69L520.67 92.69L523.18 94.49L522.24 97.4Z" fill="#ffffff" fill-rule="nonzero" opacity="1" stroke="none"/>
<path d="M515.37 99.1L514.42 102.05L511.33 102.05L513.84 103.85L512.9 106.76L515.37 104.96L517.83 106.76L516.89 103.85L519.4 102.05L516.31 102.05L515.37 99.1Z" fill="#ffffff" fill-rule="nonzero" opacity="1" stroke="none"/>
<path d="M511.94 117.71L514.41 119.51L513.47 116.6L515.97 114.8L512.89 114.8L511.94 111.85L510.99 114.8L507.91 114.8L510.41 116.6L509.47 119.51L511.94 117.71Z" fill="#ffffff" fill-rule="nonzero" opacity="1" stroke="none"/>
<path d="M516.31 127.58L515.37 124.64L514.42 127.59L511.34 127.58L513.84 129.38L512.9 132.3L515.37 130.49L517.83 132.3L516.9 129.38L519.4 127.58L516.31 127.58Z" fill="#ffffff" fill-rule="nonzero" opacity="1" stroke="none"/>
<path d="M525.67 136.94L524.72 134L523.78 136.95L520.69 136.94L523.2 138.74L522.26 141.65L524.73 139.85L527.19 141.65L526.26 138.74L528.76 136.94L525.67 136.94Z" fill="#ffffff" fill-rule="nonzero" opacity="1" stroke="none"/>
<path d="M538.42 140.33L537.47 137.38L536.53 140.34L533.44 140.33L535.95 142.13L535.01 145.04L537.47 143.24L539.94 145.04L539 142.13L541.51 140.33L538.42 140.33Z" fill="#ffffff" fill-rule="nonzero" opacity="1" stroke="none"/>
<path d="M551.17 136.94L550.22 134L549.28 136.95L546.19 136.94L548.69 138.74L547.76 141.65L550.22 139.85L552.69 141.65L551.75 138.74L554.26 136.94L551.17 136.94Z" fill="#ffffff" fill-rule="nonzero" opacity="1" stroke="none"/>
<path d="M560.53 127.58L559.58 124.64L558.64 127.59L555.55 127.58L558.06 129.38L557.12 132.3L559.58 130.49L562.05 132.3L561.11 129.38L563.61 127.58L560.53 127.58Z" fill="#ffffff" fill-rule="nonzero" opacity="1" stroke="none"/>
<path d="M567 114.76L563.92 114.76L562.97 111.81L562.03 114.77L558.94 114.76L561.44 116.56L560.51 119.47L562.97 117.67L565.44 119.47L564.5 116.56L567 114.76Z" fill="#ffffff" fill-rule="nonzero" opacity="1" stroke="none"/>
<path d="M557.12 106.72L559.58 104.92L562.05 106.72L561.11 103.81L563.61 102.01L560.53 102.01L559.58 99.06L558.63 102.02L555.55 102.01L558.06 103.81L557.12 106.72Z" fill="#ffffff" fill-rule="nonzero" opacity="1" stroke="none"/>
<path d="M550.26 89.74L549.32 92.69L546.23 92.69L548.73 94.49L547.79 97.4L550.26 95.6L552.73 97.4L551.79 94.49L554.29 92.69L551.2 92.69L550.26 89.74Z" fill="#ffffff" fill-rule="nonzero" opacity="1" stroke="none"/>
</g>
<path d="M223.73 132.25C219.43 137.14 213.13 140.24 206.1 140.24C195.75 140.24 186.98 133.55 183.84 124.27L245.61 124.27C246.07 121.82 246.33 119.3 246.33 116.72C246.33 94.5 228.32 76.5 206.11 76.5C183.9 76.5 165.89 94.51 165.89 116.72C165.89 138.93 183.9 156.94 206.11 156.94C222.82 156.94 237.14 146.75 243.22 132.25L223.74 132.25L223.73 132.25ZM206.1 93.19C216.45 93.19 225.22 99.88 228.36 109.16L183.83 109.16C186.98 99.88 195.75 93.19 206.09 93.19L206.1 93.19Z" fill="#1f3c88" fill-rule="nonzero" opacity="1" stroke="none"/>
<path d="M266.92 21.6C264.46 25.32 263.08 29.84 263.08 29.84C261.49 35.06 261.55 39.59 261.8 42.4L261.8 76.98L255.4 76.98L255.4 93.78L261.8 93.78L261.8 154.91L279.88 154.91L279.88 93.78L299.48 93.78L299.48 76.98L279.88 76.98L279.88 46.8C279.88 42.7 280.11 39.47 280.57 37.08C280.61 36.89 280.65 36.7 280.7 36.5C280.79 36.1 280.89 35.72 280.99 35.38C280.99 35.37 280.99 35.36 281 35.35C281.14 34.89 281.29 34.47 281.46 34.11C283.8 28.39 289.41 24.36 295.97 24.36C297.18 24.36 298.36 24.51 299.49 24.77L299.49 8.2C283.09 5.48 271.7 14.39 266.92 21.6Z" fill="#1f3c88" fill-rule="nonzero" opacity="1" stroke="none"/>
<path d="M434.23 76.99L434.23 83.74C428.01 79.72 420.61 77.37 412.66 77.37C390.69 77.37 372.88 95.18 372.88 117.15C372.88 139.12 390.69 156.93 412.66 156.93C420.61 156.93 428.02 154.59 434.23 150.56L434.23 154.92L452.43 154.92L452.43 76.99L434.23 76.99ZM412.96 140.71C400.75 140.71 390.71 131.42 389.52 119.53C389.44 118.75 389.4 117.95 389.4 117.15C389.4 116.35 389.44 115.55 389.52 114.77C390.71 102.88 400.75 93.59 412.96 93.59C425.97 93.59 436.52 104.14 436.52 117.15C436.52 130.16 425.97 140.71 412.96 140.71Z" fill="#1f3c88" fill-rule="nonzero" opacity="1" stroke="none"/>
</g>
</svg>